<svg width="78" height="78" viewBox="0 0 78 78" fill="none" xmlns="http://www.w3.org/2000/svg">
<g opacity="0.8">
<rect x="0.481742" y="0.481742" width="76.1152" height="76.1152" rx="38.0576" stroke="#28292E" stroke-width="0.963483"/>
<rect x="0.481742" y="0.481742" width="76.1152" height="76.1152" rx="38.0576" stroke="#3F3F43" stroke-width="0.963483"/>
<path d="M38.5393 19.2697L56.4703 25.6591L53.7522 49.3912L38.5393 57.809L23.3264 49.3912L20.6084 25.6591L38.5393 19.2697ZM38.5393 23.5293L27.3224 48.6813H31.5008L33.7523 43.0424H43.2858L45.5373 48.6813H49.6954L38.5393 23.5293ZM41.8253 39.5536H35.2736L38.5393 31.7037L41.8253 39.5536Z" fill="#56575A"/>
<path d="M38.5393 19.2697L56.4703 25.6591L53.7522 49.3912L38.5393 57.809L23.3264 49.3912L20.6084 25.6591L38.5393 19.2697ZM38.5393 23.5293L27.3224 48.6813H31.5008L33.7523 43.0424H43.2858L45.5373 48.6813H49.6954L38.5393 23.5293ZM41.8253 39.5536H35.2736L38.5393 31.7037L41.8253 39.5536Z" fill="#C7C8C9"/>
</g>
</svg>
