<svg width="78" height="78" viewBox="0 0 78 78" fill="none" xmlns="http://www.w3.org/2000/svg">
<g opacity="0.8">
<rect x="0.762747" y="0.481742" width="76.1152" height="76.1152" rx="38.0576" stroke="#28292E" stroke-width="0.963483"/>
<rect x="0.762747" y="0.481742" width="76.1152" height="76.1152" rx="38.0576" stroke="#3F3F43" stroke-width="0.963483"/>
<path d="M24.7384 19.2697C21.9893 19.2697 19.9574 21.6865 20.0494 24.3054C20.1351 26.8232 20.0216 30.0828 19.2037 32.7426C18.3837 35.4088 16.9984 37.0988 14.7332 37.3159V39.7628C16.9984 39.98 18.3837 41.67 19.2037 44.3362C20.0216 46.9938 20.1351 50.2556 20.0473 52.7712C19.9574 55.3923 21.9893 57.809 24.7405 57.809H52.9042C55.6534 57.809 57.6874 55.3923 57.5975 52.7712C57.5097 50.2556 57.6231 46.9938 58.4389 44.3362C59.2611 41.67 60.6442 39.98 62.9073 39.7628V37.3159C60.6421 37.0988 59.2611 35.4088 58.4389 32.7426C57.6231 30.085 57.5097 26.8232 57.5975 24.3054C57.6874 21.6865 55.6534 19.2697 52.9042 19.2697H24.7384ZM47.3931 42.9923C47.3931 46.6003 44.7146 48.7892 40.2676 48.7892H32.6968C32.5895 48.7894 32.4832 48.7685 32.3839 48.7274C32.2847 48.6864 32.1945 48.6261 32.1186 48.55C32.0426 48.4739 31.9823 48.3835 31.9412 48.2839C31.9 48.1844 31.8789 48.0777 31.8789 47.9699V29.1088C31.8789 29.001 31.9 28.8943 31.9412 28.7948C31.9823 28.6953 32.0426 28.6049 32.1186 28.5288C32.1945 28.4527 32.2847 28.3924 32.3839 28.3513C32.4832 28.3103 32.5895 28.2893 32.6968 28.2896H40.2226C43.931 28.2896 46.3654 30.3064 46.3654 33.4048C46.3654 35.5765 44.7275 37.5245 42.6421 37.8642V37.9782C45.4811 38.29 47.3931 40.266 47.3931 42.9923ZM39.4411 30.887H35.1247V37.0106H38.7603C41.5715 37.0106 43.1195 35.8753 43.1195 33.8434C43.1195 31.9406 41.7878 30.8891 39.4411 30.8891V30.887ZM35.1247 39.4403V46.1896H39.5996C42.5264 46.1896 44.0744 45.0092 44.0744 42.7924C44.0744 40.5777 42.4836 39.4403 39.4112 39.4403H35.1247Z" fill="#56575A"/>
<path d="M24.7384 19.2697C21.9893 19.2697 19.9574 21.6865 20.0494 24.3054C20.1351 26.8232 20.0216 30.0828 19.2037 32.7426C18.3837 35.4088 16.9984 37.0988 14.7332 37.3159V39.7628C16.9984 39.98 18.3837 41.67 19.2037 44.3362C20.0216 46.9938 20.1351 50.2556 20.0473 52.7712C19.9574 55.3923 21.9893 57.809 24.7405 57.809H52.9042C55.6534 57.809 57.6874 55.3923 57.5975 52.7712C57.5097 50.2556 57.6231 46.9938 58.4389 44.3362C59.2611 41.67 60.6442 39.98 62.9073 39.7628V37.3159C60.6421 37.0988 59.2611 35.4088 58.4389 32.7426C57.6231 30.085 57.5097 26.8232 57.5975 24.3054C57.6874 21.6865 55.6534 19.2697 52.9042 19.2697H24.7384ZM47.3931 42.9923C47.3931 46.6003 44.7146 48.7892 40.2676 48.7892H32.6968C32.5895 48.7894 32.4832 48.7685 32.3839 48.7274C32.2847 48.6864 32.1945 48.6261 32.1186 48.55C32.0426 48.4739 31.9823 48.3835 31.9412 48.2839C31.9 48.1844 31.8789 48.0777 31.8789 47.9699V29.1088C31.8789 29.001 31.9 28.8943 31.9412 28.7948C31.9823 28.6953 32.0426 28.6049 32.1186 28.5288C32.1945 28.4527 32.2847 28.3924 32.3839 28.3513C32.4832 28.3103 32.5895 28.2893 32.6968 28.2896H40.2226C43.931 28.2896 46.3654 30.3064 46.3654 33.4048C46.3654 35.5765 44.7275 37.5245 42.6421 37.8642V37.9782C45.4811 38.29 47.3931 40.266 47.3931 42.9923ZM39.4411 30.887H35.1247V37.0106H38.7603C41.5715 37.0106 43.1195 35.8753 43.1195 33.8434C43.1195 31.9406 41.7878 30.8891 39.4411 30.8891V30.887ZM35.1247 39.4403V46.1896H39.5996C42.5264 46.1896 44.0744 45.0092 44.0744 42.7924C44.0744 40.5777 42.4836 39.4403 39.4112 39.4403H35.1247Z" fill="#C7C8C9"/>
</g>
</svg>
