<svg width="78" height="78" viewBox="0 0 78 78" fill="none" xmlns="http://www.w3.org/2000/svg">
<g opacity="0.8">
<rect x="1.40288" y="0.481742" width="76.1152" height="76.1152" rx="38.0576" stroke="#28292E" stroke-width="0.963483"/>
<rect x="1.40288" y="0.481742" width="76.1152" height="76.1152" rx="38.0576" stroke="#3F3F43" stroke-width="0.963483"/>
<path d="M58.0164 41.4245C56.2236 41.4338 54.6654 41.8656 53.3608 42.5039C52.8819 41.5558 52.4032 40.7111 52.3189 40.0915C52.2249 39.3689 52.1123 38.9276 52.2249 38.0641C52.3376 37.2005 52.8445 35.9708 52.835 35.877C52.8257 35.7832 52.7223 35.3419 51.6898 35.3327C50.6574 35.3232 49.7656 35.5297 49.6623 35.8019C49.5591 36.074 49.362 36.6936 49.2306 37.3318C49.0522 38.2706 47.1656 41.6214 46.0863 43.3767C45.7388 42.6917 45.4385 42.0908 45.3727 41.6122C45.2789 40.8895 45.1662 40.4482 45.2789 39.5847C45.3916 38.7211 45.8985 37.4916 45.889 37.3976C45.8796 37.3038 45.7763 36.8625 44.7438 36.8533C43.7112 36.8438 42.8194 37.0503 42.7164 37.3225C42.6131 37.5948 42.5004 38.233 42.2846 38.8526C42.0686 39.4722 39.5624 45.0666 38.9054 46.5119C38.6399 47.0969 38.3613 47.676 38.07 48.2485C38.07 48.2485 38.0605 48.2767 38.0324 48.3236C37.9408 48.5032 37.847 48.6815 37.7509 48.8587V48.8679C37.61 49.1216 37.4599 49.3561 37.3848 49.3561C37.3284 49.3561 37.2252 48.6803 37.4035 47.7604C37.7789 45.8175 38.6707 42.795 38.6614 42.6917C38.6614 42.6353 38.8303 42.1098 38.0795 41.8374C37.3471 41.5652 37.0844 42.0158 37.0186 42.0158C36.953 42.0158 36.9059 42.1754 36.9059 42.1754C36.9059 42.1754 37.7228 38.7775 35.3478 38.7775C33.8649 38.7775 31.8185 40.4013 30.8048 41.8656C29.6524 42.4927 28.5009 43.1216 27.3505 43.7524C26.7969 44.0621 26.2242 44.3719 25.6892 44.6628C25.6515 44.6254 25.6141 44.5783 25.5764 44.5408C22.7041 41.4714 17.3915 39.3031 17.6167 35.1825C17.7013 33.6806 18.2174 29.7382 27.8199 24.9511C35.7233 21.0556 42.0124 22.135 43.1012 24.5286C44.6593 27.9454 39.7315 34.2907 31.5651 35.2105C28.4488 35.5579 26.8154 34.3564 26.4026 33.9059C25.9708 33.4364 25.905 33.4083 25.7453 33.5023C25.4826 33.6432 25.6515 34.0655 25.7453 34.3095C25.9895 34.9476 26.9938 36.074 28.6927 36.628C30.1946 37.116 33.846 37.3883 38.2671 35.6799C43.2138 33.765 47.0811 28.4428 45.9454 23.9843C44.8095 19.4599 37.3002 17.9675 30.1946 20.4924C25.9708 21.9945 21.3901 24.3597 18.0954 27.4386C14.1812 31.0992 13.5616 34.2813 13.815 35.6143C14.7257 40.345 21.2493 43.4238 23.8588 45.7047C23.7273 45.7798 23.6051 45.8456 23.5021 45.902C22.1973 46.5496 17.2224 49.1495 15.9834 51.8999C14.5755 55.0162 16.2088 57.2504 17.2882 57.5505C20.6392 58.4799 24.084 56.8091 25.9331 54.0493C27.7823 51.2897 27.557 47.704 26.7029 46.0614C26.6934 46.0427 26.6842 46.0238 26.6653 46.0051C27.0032 45.808 27.3505 45.6015 27.6885 45.4044C28.3096 45.0372 28.9387 44.6835 29.5752 44.3436C29.256 45.2166 29.0213 46.2585 28.9087 47.7604C28.7678 49.5252 29.4905 51.8153 30.4386 52.7163C30.8611 53.1109 31.3585 53.1202 31.6778 53.1202C32.7853 53.1202 33.2829 52.2002 33.8367 51.1114C34.5125 49.7786 35.1226 48.2298 35.1226 48.2298C35.1226 48.2298 34.3623 52.4162 36.4274 52.4162C37.1782 52.4162 37.9386 51.4399 38.2765 50.9425V50.9518C38.2765 50.9518 38.2953 50.9236 38.3329 50.858C38.408 50.736 38.4549 50.6607 38.4549 50.6607V50.6422C38.7552 50.1164 39.4312 48.9243 40.4354 46.9437C41.7308 44.3907 42.9793 41.1993 42.9793 41.1993C42.9793 41.1993 43.092 41.9783 43.4767 43.2737C43.7021 44.034 44.1711 44.8694 44.5468 45.6766C44.2464 46.0991 44.0586 46.3336 44.0586 46.3336L44.0681 46.3431C43.8239 46.6621 43.5612 47.0093 43.2701 47.3475C42.2469 48.5676 41.0269 49.9664 40.8578 50.3698C40.6605 50.8485 40.7076 51.1959 41.0832 51.4776C41.3554 51.6841 41.8433 51.7121 42.3409 51.6841C43.2609 51.6183 43.9084 51.393 44.2275 51.2523C44.7251 51.074 45.3071 50.8016 45.8514 50.398C46.8559 49.6564 47.4658 48.5958 47.4096 47.1974C47.3814 46.4276 47.128 45.6578 46.8182 44.935C46.9122 44.8037 46.9966 44.6723 47.0906 44.5408C48.6768 42.2223 49.9065 39.6785 49.9065 39.6785C49.9065 39.6785 50.0192 40.4575 50.4039 41.7531C50.5917 42.4101 50.9766 43.1235 51.3144 43.818C49.822 45.029 48.902 46.4369 48.5735 47.3568C47.9823 49.0652 48.4421 49.8348 49.3151 50.0131C49.7092 50.0977 50.2725 49.9099 50.6855 49.7315C51.2111 49.5626 51.8307 49.2717 52.4221 48.8398C53.4266 48.0984 54.3932 47.0657 54.3369 45.6673C54.3087 45.029 54.1398 44.3999 53.9051 43.7898C55.1723 43.2644 56.8056 42.9733 58.8892 43.2173C63.3574 43.7429 64.2397 46.5307 64.0706 47.7042C63.9018 48.8774 62.9631 49.5157 62.6535 49.7128C62.3435 49.9101 62.2404 49.9757 62.2686 50.1164C62.3061 50.3229 62.4562 50.3137 62.7191 50.276C63.0853 50.2104 65.0659 49.3279 65.1502 47.169C65.2911 44.4094 62.6628 41.3964 58.0164 41.4245ZM23.549 53.0451C22.0658 54.6595 20.0009 55.2696 19.1091 54.7535C18.1518 54.1995 18.5272 51.8153 20.3481 50.1071C21.4557 49.0652 22.8825 48.0982 23.8306 47.507C24.0464 47.3755 24.3656 47.1879 24.7505 46.9532C24.8161 46.9155 24.8538 46.8968 24.8538 46.8968L25.079 46.7559C25.7453 49.1964 25.1072 51.3461 23.549 53.0451ZM34.3436 45.7047C33.8272 46.9626 32.7479 50.1822 32.0908 50.0039C31.5276 49.8537 31.1802 47.4132 31.9781 45.0008C32.3817 43.7898 33.2358 42.3443 33.7334 41.7812C34.5406 40.88 35.4324 40.5795 35.6482 40.9459C35.9205 41.4245 34.6626 44.9163 34.3436 45.7047ZM43.2514 49.9662C43.0354 50.0789 42.8291 50.154 42.7351 50.0977C42.6695 50.06 42.8291 49.9099 42.8291 49.9099C42.8291 49.9099 43.9461 48.7085 44.3871 48.164C44.6408 47.8449 44.9409 47.4695 45.2602 47.047V47.169C45.2602 48.6052 43.8708 49.5721 43.2512 49.9662H43.2514ZM50.1223 48.3987C49.9627 48.286 49.9909 47.9106 50.5259 46.7372C50.7324 46.2772 51.2204 45.5077 52.056 44.7661C52.1498 45.0664 52.2156 45.3575 52.2061 45.6297C52.1967 47.4413 50.9015 48.1171 50.1223 48.3987Z" fill="#56575A"/>
<path d="M58.0164 41.4245C56.2236 41.4338 54.6654 41.8656 53.3608 42.5039C52.8819 41.5558 52.4032 40.7111 52.3189 40.0915C52.2249 39.3689 52.1123 38.9276 52.2249 38.0641C52.3376 37.2005 52.8445 35.9708 52.835 35.877C52.8257 35.7832 52.7223 35.3419 51.6898 35.3327C50.6574 35.3232 49.7656 35.5297 49.6623 35.8019C49.5591 36.074 49.362 36.6936 49.2306 37.3318C49.0522 38.2706 47.1656 41.6214 46.0863 43.3767C45.7388 42.6917 45.4385 42.0908 45.3727 41.6122C45.2789 40.8895 45.1662 40.4482 45.2789 39.5847C45.3916 38.7211 45.8985 37.4916 45.889 37.3976C45.8796 37.3038 45.7763 36.8625 44.7438 36.8533C43.7112 36.8438 42.8194 37.0503 42.7164 37.3225C42.6131 37.5948 42.5004 38.233 42.2846 38.8526C42.0686 39.4722 39.5624 45.0666 38.9054 46.5119C38.6399 47.0969 38.3613 47.676 38.07 48.2485C38.07 48.2485 38.0605 48.2767 38.0324 48.3236C37.9408 48.5032 37.847 48.6815 37.7509 48.8587V48.8679C37.61 49.1216 37.4599 49.3561 37.3848 49.3561C37.3284 49.3561 37.2252 48.6803 37.4035 47.7604C37.7789 45.8175 38.6707 42.795 38.6614 42.6917C38.6614 42.6353 38.8303 42.1098 38.0795 41.8374C37.3471 41.5652 37.0844 42.0158 37.0186 42.0158C36.953 42.0158 36.9059 42.1754 36.9059 42.1754C36.9059 42.1754 37.7228 38.7775 35.3478 38.7775C33.8649 38.7775 31.8185 40.4013 30.8048 41.8656C29.6524 42.4927 28.5009 43.1216 27.3505 43.7524C26.7969 44.0621 26.2242 44.3719 25.6892 44.6628C25.6515 44.6254 25.6141 44.5783 25.5764 44.5408C22.7041 41.4714 17.3915 39.3031 17.6167 35.1825C17.7013 33.6806 18.2174 29.7382 27.8199 24.9511C35.7233 21.0556 42.0124 22.135 43.1012 24.5286C44.6593 27.9454 39.7315 34.2907 31.5651 35.2105C28.4488 35.5579 26.8154 34.3564 26.4026 33.9059C25.9708 33.4364 25.905 33.4083 25.7453 33.5023C25.4826 33.6432 25.6515 34.0655 25.7453 34.3095C25.9895 34.9476 26.9938 36.074 28.6927 36.628C30.1946 37.116 33.846 37.3883 38.2671 35.6799C43.2138 33.765 47.0811 28.4428 45.9454 23.9843C44.8095 19.4599 37.3002 17.9675 30.1946 20.4924C25.9708 21.9945 21.3901 24.3597 18.0954 27.4386C14.1812 31.0992 13.5616 34.2813 13.815 35.6143C14.7257 40.345 21.2493 43.4238 23.8588 45.7047C23.7273 45.7798 23.6051 45.8456 23.5021 45.902C22.1973 46.5496 17.2224 49.1495 15.9834 51.8999C14.5755 55.0162 16.2088 57.2504 17.2882 57.5505C20.6392 58.4799 24.084 56.8091 25.9331 54.0493C27.7823 51.2897 27.557 47.704 26.7029 46.0614C26.6934 46.0427 26.6842 46.0238 26.6653 46.0051C27.0032 45.808 27.3505 45.6015 27.6885 45.4044C28.3096 45.0372 28.9387 44.6835 29.5752 44.3436C29.256 45.2166 29.0213 46.2585 28.9087 47.7604C28.7678 49.5252 29.4905 51.8153 30.4386 52.7163C30.8611 53.1109 31.3585 53.1202 31.6778 53.1202C32.7853 53.1202 33.2829 52.2002 33.8367 51.1114C34.5125 49.7786 35.1226 48.2298 35.1226 48.2298C35.1226 48.2298 34.3623 52.4162 36.4274 52.4162C37.1782 52.4162 37.9386 51.4399 38.2765 50.9425V50.9518C38.2765 50.9518 38.2953 50.9236 38.3329 50.858C38.408 50.736 38.4549 50.6607 38.4549 50.6607V50.6422C38.7552 50.1164 39.4312 48.9243 40.4354 46.9437C41.7308 44.3907 42.9793 41.1993 42.9793 41.1993C42.9793 41.1993 43.092 41.9783 43.4767 43.2737C43.7021 44.034 44.1711 44.8694 44.5468 45.6766C44.2464 46.0991 44.0586 46.3336 44.0586 46.3336L44.0681 46.3431C43.8239 46.6621 43.5612 47.0093 43.2701 47.3475C42.2469 48.5676 41.0269 49.9664 40.8578 50.3698C40.6605 50.8485 40.7076 51.1959 41.0832 51.4776C41.3554 51.6841 41.8433 51.7121 42.3409 51.6841C43.2609 51.6183 43.9084 51.393 44.2275 51.2523C44.7251 51.074 45.3071 50.8016 45.8514 50.398C46.8559 49.6564 47.4658 48.5958 47.4096 47.1974C47.3814 46.4276 47.128 45.6578 46.8182 44.935C46.9122 44.8037 46.9966 44.6723 47.0906 44.5408C48.6768 42.2223 49.9065 39.6785 49.9065 39.6785C49.9065 39.6785 50.0192 40.4575 50.4039 41.7531C50.5917 42.4101 50.9766 43.1235 51.3144 43.818C49.822 45.029 48.902 46.4369 48.5735 47.3568C47.9823 49.0652 48.4421 49.8348 49.3151 50.0131C49.7092 50.0977 50.2725 49.9099 50.6855 49.7315C51.2111 49.5626 51.8307 49.2717 52.4221 48.8398C53.4266 48.0984 54.3932 47.0657 54.3369 45.6673C54.3087 45.029 54.1398 44.3999 53.9051 43.7898C55.1723 43.2644 56.8056 42.9733 58.8892 43.2173C63.3574 43.7429 64.2397 46.5307 64.0706 47.7042C63.9018 48.8774 62.9631 49.5157 62.6535 49.7128C62.3435 49.9101 62.2404 49.9757 62.2686 50.1164C62.3061 50.3229 62.4562 50.3137 62.7191 50.276C63.0853 50.2104 65.0659 49.3279 65.1502 47.169C65.2911 44.4094 62.6628 41.3964 58.0164 41.4245ZM23.549 53.0451C22.0658 54.6595 20.0009 55.2696 19.1091 54.7535C18.1518 54.1995 18.5272 51.8153 20.3481 50.1071C21.4557 49.0652 22.8825 48.0982 23.8306 47.507C24.0464 47.3755 24.3656 47.1879 24.7505 46.9532C24.8161 46.9155 24.8538 46.8968 24.8538 46.8968L25.079 46.7559C25.7453 49.1964 25.1072 51.3461 23.549 53.0451ZM34.3436 45.7047C33.8272 46.9626 32.7479 50.1822 32.0908 50.0039C31.5276 49.8537 31.1802 47.4132 31.9781 45.0008C32.3817 43.7898 33.2358 42.3443 33.7334 41.7812C34.5406 40.88 35.4324 40.5795 35.6482 40.9459C35.9205 41.4245 34.6626 44.9163 34.3436 45.7047ZM43.2514 49.9662C43.0354 50.0789 42.8291 50.154 42.7351 50.0977C42.6695 50.06 42.8291 49.9099 42.8291 49.9099C42.8291 49.9099 43.9461 48.7085 44.3871 48.164C44.6408 47.8449 44.9409 47.4695 45.2602 47.047V47.169C45.2602 48.6052 43.8708 49.5721 43.2512 49.9662H43.2514ZM50.1223 48.3987C49.9627 48.286 49.9909 47.9106 50.5259 46.7372C50.7324 46.2772 51.2204 45.5077 52.056 44.7661C52.1498 45.0664 52.2156 45.3575 52.2061 45.6297C52.1967 47.4413 50.9015 48.1171 50.1223 48.3987Z" fill="#C7C8C9"/>
</g>
</svg>
