<svg width="78" height="78" viewBox="0 0 78 78" fill="none" xmlns="http://www.w3.org/2000/svg">
<g opacity="0.8">
<rect x="1.12237" y="0.481742" width="76.1152" height="76.1152" rx="38.0576" stroke="#28292E" stroke-width="0.963483"/>
<rect x="1.12237" y="0.481742" width="76.1152" height="76.1152" rx="38.0576" stroke="#3F3F43" stroke-width="0.963483"/>
<path d="M19.9102 38.5394V57.809H58.4495V19.2697H19.9102V38.5394ZM50.9656 37.0026C51.8895 37.2202 52.7292 37.7043 53.3804 38.3949C53.732 38.7706 54.2583 39.4607 54.3029 39.6305C54.3149 39.6811 52.6409 40.8036 51.6244 41.431C51.5871 41.4563 51.4365 41.2998 51.2727 41.0541C50.7777 40.3327 50.2563 40.0195 49.4602 39.9629C48.2932 39.887 47.5404 40.4965 47.5465 41.5189C47.5403 41.7691 47.5962 42.017 47.7091 42.2404C47.9668 42.7739 48.4497 43.093 49.9419 43.7398C52.7023 44.9249 53.8814 45.7089 54.6148 46.8193C55.4362 48.061 55.618 50.0434 55.0664 51.5235C54.4522 53.1229 52.9335 54.214 50.8006 54.5717C50.1418 54.691 48.5738 54.6717 47.8644 54.5404C46.3156 54.2646 44.8475 53.4987 43.9442 52.4954C43.5865 52.1064 42.8965 51.0839 42.941 51.0153C42.9603 50.99 43.1169 50.89 43.2927 50.7889L44.7235 49.9603L45.8339 49.3147L46.0663 49.6592C46.3927 50.1542 47.1009 50.8322 47.5284 51.0574C48.758 51.7102 50.4453 51.6163 51.28 50.8696C51.6184 50.5877 51.8075 50.1542 51.7822 49.7158C51.7822 49.2702 51.7256 49.0702 51.4931 48.7366C51.192 48.3103 50.5838 47.9466 48.846 47.1939C46.8576 46.334 45.9977 45.8077 45.2209 44.961C44.7318 44.4037 44.3702 43.7465 44.161 43.0352C44.0165 42.4897 43.9792 41.1215 44.0924 40.5759C44.5007 38.6502 45.9555 37.3145 48.0439 36.9195C48.7219 36.7882 50.302 36.8376 50.9668 37.0014L50.9656 37.0026ZM41.9209 38.6153L41.933 40.1893H36.9144V54.4477H33.364V40.1893H28.3527V38.6466C28.3527 37.7867 28.3719 37.0725 28.396 37.0532C28.4153 37.0279 31.4635 37.0159 35.1645 37.0219L41.9017 37.0412L41.9209 38.6153Z" fill="#56575A"/>
<path d="M19.9102 38.5394V57.809H58.4495V19.2697H19.9102V38.5394ZM50.9656 37.0026C51.8895 37.2202 52.7292 37.7043 53.3804 38.3949C53.732 38.7706 54.2583 39.4607 54.3029 39.6305C54.3149 39.6811 52.6409 40.8036 51.6244 41.431C51.5871 41.4563 51.4365 41.2998 51.2727 41.0541C50.7777 40.3327 50.2563 40.0195 49.4602 39.9629C48.2932 39.887 47.5404 40.4965 47.5465 41.5189C47.5403 41.7691 47.5962 42.017 47.7091 42.2404C47.9668 42.7739 48.4497 43.093 49.9419 43.7398C52.7023 44.9249 53.8814 45.7089 54.6148 46.8193C55.4362 48.061 55.618 50.0434 55.0664 51.5235C54.4522 53.1229 52.9335 54.214 50.8006 54.5717C50.1418 54.691 48.5738 54.6717 47.8644 54.5404C46.3156 54.2646 44.8475 53.4987 43.9442 52.4954C43.5865 52.1064 42.8965 51.0839 42.941 51.0153C42.9603 50.99 43.1169 50.89 43.2927 50.7889L44.7235 49.9603L45.8339 49.3147L46.0663 49.6592C46.3927 50.1542 47.1009 50.8322 47.5284 51.0574C48.758 51.7102 50.4453 51.6163 51.28 50.8696C51.6184 50.5877 51.8075 50.1542 51.7822 49.7158C51.7822 49.2702 51.7256 49.0702 51.4931 48.7366C51.192 48.3103 50.5838 47.9466 48.846 47.1939C46.8576 46.334 45.9977 45.8077 45.2209 44.961C44.7318 44.4037 44.3702 43.7465 44.161 43.0352C44.0165 42.4897 43.9792 41.1215 44.0924 40.5759C44.5007 38.6502 45.9555 37.3145 48.0439 36.9195C48.7219 36.7882 50.302 36.8376 50.9668 37.0014L50.9656 37.0026ZM41.9209 38.6153L41.933 40.1893H36.9144V54.4477H33.364V40.1893H28.3527V38.6466C28.3527 37.7867 28.3719 37.0725 28.396 37.0532C28.4153 37.0279 31.4635 37.0159 35.1645 37.0219L41.9017 37.0412L41.9209 38.6153Z" fill="#C7C8C9"/>
</g>
</svg>
